{"title":"Trujillo Distance (ft. Mr casanova) By ColdReader","uid":6742553,"size":32487502,"categoryP":"video","categoryS":"music_videos","magnet":"?xt=urn:btih:91c13a9b63438ee156a39b10229ac81053ff502c&amp;dn=Trujillo+Distance+%28ft.+Mr+casanova%29+By+ColdReader&amp;tr=udp%3A%2F%2Ftracker.openbittorrent.com%3A80&amp;tr=udp%3A%2F%2Fopen.demonii.com%3A1337&amp;tr=udp%3A%2F%2Ftracker.coppersurfer.tk%3A6969&amp;tr=udp%3A%2F%2Fexodus.desync.com%3A6969","seeders":0,"leechers":0,"uploader":"ft3d","files":1,"time":1318566938,"description":"\nTrujillo Distance (ft. Mr casanova) By ColdReader\n\n\nFormat                         : MPEG-4\nFormat profile                 : QuickTime\nCodec ID                       : qt  \nFile size                      : 31.0 MiB\nDuration                       : 4mn 5s\nOverall bit rate               : 1 060 Kbps\nEncoded date                   : UTC 2011-09-23 04:29:53\nTagged date                    : UTC 2011-09-23 04:33:59\nWriting library                : Apple QuickTime\n\nVideo\nID                             : 2\nFormat                         : MPEG-4 Visual\nFormat profile                 : Advanced Simple@L3\nFormat settings, BVOP          : Yes\nFormat settings, QPel          : No\nFormat settings, GMC           : No warppoints\nFormat settings, Matrix        : Default (H.263)\nCodec ID                       : 20\nDuration                       : 4mn 5s\nBit rate                       : 925 Kbps\nWidth                          : 640 pixels\nHeight                         : 480 pixels\nDisplay aspect ratio           : 4:3\nFrame rate mode                : Constant\nFrame rate                     : 25.000 fps\nColor space                    : YUV\nBit depth                      : 8 bits\nScan type                      : Progressive\nCompression mode               : Lossy\nBits/(Pixel*Frame)             : 0.120\nStream size                    : 27.0 MiB (87%)\nLanguage                       : English\nEncoded date                   : UTC 2011-09-23 04:29:54\nTagged date                    : UTC 2011-09-23 04:33:59\n\nAudio\nID                             : 1\nFormat                         : AAC\nFormat/Info                    : Advanced Audio Codec\nFormat profile                 : LC\nCodec ID                       : 40\nDuration                       : 4mn 4s\nBit rate mode                  : Constant\nBit rate                       : 128 Kbps\nChannel(s)                     : 2 channels\nChannel positions              : Front: L R\nSampling rate                  : 44.1 KHz\nCompression mode               : Lossy\nStream size                    : 3.68 MiB (12%)\nLanguage                       : English\nEncoded date                   : UTC 2011-09-23 04:29:54\nTagged date                    : UTC 2011-09-23 04:33:59\nMaterial_Duration              : 244947\nMaterial_StreamSize            : 3853521\n\nListo para Iphone, Samsung Galaxy (serie)\n","torrent":{"xt":"urn:btih:91c13a9b63438ee156a39b10229ac81053ff502c","amp;dn":"Trujillo+Distance+%28ft.+Mr+casanova%29+By+ColdReader","amp;tr":["udp%3A%2F%2Ftracker.openbittorrent.com%3A80","udp%3A%2F%2Fopen.demonii.com%3A1337","udp%3A%2F%2Ftracker.coppersurfer.tk%3A6969","udp%3A%2F%2Fexodus.desync.com%3A6969"],"infoHash":"91c13a9b63438ee156a39b10229ac81053ff502c","infoHashBuffer":{"type":"Buffer","data":[145,193,58,155,99,67,142,225,86,163,155,16,34,154,200,16,83,255,80,44]},"announce":[],"urlList":[]}}